HIERARCHY
ROOT Hips
{
 OFFSET 0.000000 0.000000 0.000000
 CHANNELS 6 Xposition Yposition Zposition Yrotation Xrotation Zrotation
 JOINT Chest
 {
  OFFSET 0.000000 9.857222 0.000240
  CHANNELS 3 Yrotation Xrotation Zrotation
  JOINT Chest2
  {
   OFFSET 0.000000 10.876940 -0.000436
   CHANNELS 3 Yrotation Xrotation Zrotation
   JOINT Chest3
   {
    OFFSET 0.000000 9.827798 0.000000
    CHANNELS 3 Yrotation Xrotation Zrotation
    JOINT Chest4
    {
     OFFSET 0.000000 9.827798 0.000000
     CHANNELS 3 Yrotation Xrotation Zrotation
     JOINT Neck
     {
      OFFSET 0.000000 13.831992 0.000000
      CHANNELS 3 Yrotation Xrotation Zrotation
      JOINT Head
      {
       OFFSET 0.000000 9.147643 -0.001036
       CHANNELS 3 Yrotation Xrotation Zrotation
       End Site
       {
        OFFSET 0.000000 17.515799 -0.000541
       }
      }
     }
     JOINT RightCollar
     {
      OFFSET -3.001579 7.717577 0.000000
      CHANNELS 3 Yrotation Xrotation Zrotation
      JOINT RightShoulder
      {
       OFFSET -14.002642 0.000000 0.000000
       CHANNELS 3 Yrotation Xrotation Zrotation
       JOINT RightElbow
       {
        OFFSET -30.053852 0.000000 0.000000
        CHANNELS 3 Yrotation Xrotation Zrotation
        JOINT RightWrist
        {
         OFFSET -24.564923 0.000000 -0.000000
         CHANNELS 3 Yrotation Xrotation Zrotation
         End Site
         {
          OFFSET -18.334355 0.000000 0.000000
         }
        }
       }
      }
     }
     JOINT LeftCollar
     {
      OFFSET 3.001579 7.717577 0.000000
      CHANNELS 3 Yrotation Xrotation Zrotation
      JOINT LeftShoulder
      {
       OFFSET 14.002642 0.000000 0.000000
       CHANNELS 3 Yrotation Xrotation Zrotation
       JOINT LeftElbow
       {
        OFFSET 30.053852 0.000000 0.000000
        CHANNELS 3 Yrotation Xrotation Zrotation
        JOINT LeftWrist
        {
         OFFSET 24.564923 0.000000 -0.000000
         CHANNELS 3 Yrotation Xrotation Zrotation
         End Site
         {
          OFFSET 18.334355 0.000000 0.000000
         }
        }
       }
      }
     }
    }
   }
  }
 }
 JOINT RightHip
 {
  OFFSET -8.003235 -0.001175 -0.000120
  CHANNELS 3 Yrotation Xrotation Zrotation
  JOINT RightKnee
  {
   OFFSET 0.000000 -41.759727 0.000113
   CHANNELS 3 Yrotation Xrotation Zrotation
   JOINT RightAnkle
   {
    OFFSET 0.000000 -40.728748 0.000159
    CHANNELS 3 Yrotation Xrotation Zrotation
    JOINT RightToe
    {
     OFFSET 0.000000 -6.515296 14.732841
     CHANNELS 3 Yrotation Xrotation Zrotation
     End Site
     {
      OFFSET 0.000000 -1.502839 6.412115
     }
    }
   }
  }
 }
 JOINT LeftHip
 {
  OFFSET 8.003235 -0.001175 -0.000120
  CHANNELS 3 Yrotation Xrotation Zrotation
  JOINT LeftKnee
  {
   OFFSET 0.000000 -41.759727 0.000113
   CHANNELS 3 Yrotation Xrotation Zrotation
   JOINT LeftAnkle
   {
    OFFSET 0.000000 -40.728748 0.000159
    CHANNELS 3 Yrotation Xrotation Zrotation
    JOINT LeftToe
    {
     OFFSET 0.000000 -6.515296 14.732841
     CHANNELS 3 Yrotation Xrotation Zrotation
     End Site
     {
      OFFSET 0.000000 -1.502839 6.412115
     }
    }
   }
  }
 }
}
MOTION
Frames: 14
Frame Time: 0.016667
26.380770 72.203148 -1.774780 -31.291055 43.186606 -1.666743 0.254549 1.116820 1.772854 0.195850 0.215358 0.589992 0.195850 0.215358 0.589992 0.146680 0.161708 0.442424 -3.782390 3.475042 3.736887 -10.092575 -29.221618 10.025679 15.704135 5.639559 -8.107688 60.621897 25.055644 -33.848902 3.001587 -10.696508 -11.530793 -1.942350 2.484117 -6.297276 -12.369866 8.688047 5.338682 -48.495204 1.280101 35.953302 -16.609355 -16.724118 17.145574 1.758303 0.257202 6.459402 -120.956668 -74.915566 115.489660 -29.793806 59.911986 -42.508311 0.982270 -10.797429 5.115841 2.209507 -2.053679 0.332876 -141.130395 -68.453684 166.537435 -140.637031 83.828561 -157.236071 -5.677382 -22.290791 -1.773635 -0.341578 0.338650 -0.107258
25.947713 73.332461 -1.018237 -30.633920 41.672088 -1.615984 -0.194813 1.599885 2.058442 0.187998 0.269228 0.540765 0.187998 0.269228 0.540765 0.140760 0.202087 0.405490 -3.724943 3.613662 3.737721 -9.948609 -28.973433 9.967395 15.477829 5.721055 -7.773338 61.540162 25.197479 -33.007775 3.108261 -10.854757 -11.472480 -1.989783 2.277723 -6.244437 -12.502944 9.084719 5.305183 -48.984101 1.307394 36.051258 -15.923708 -16.027210 16.212713 1.748527 0.389614 6.323507 -108.015436 -75.404593 101.710047 -28.115944 58.302668 -40.734095 0.995919 -10.833594 5.304343 2.307843 -1.990339 0.373603 -134.835131 -70.981954 159.303446 -132.285624 85.197365 -149.300821 -5.637273 -22.746249 -1.818420 -0.411624 0.354133 -0.157139
25.456102 74.428125 -0.258798 -29.847275 39.979589 -1.545785 -0.762225 2.191654 2.351310 0.184077 0.324445 0.470747 0.184077 0.324445 0.470747 0.137808 0.243475 0.352961 -3.653916 3.765768 3.760477 -9.787651 -28.699144 9.944340 15.138377 5.731169 -7.438042 62.715257 25.274582 -32.061171 2.979024 -10.754597 -11.243914 -1.975016 2.145425 -5.914790 -12.697201 9.419070 5.327702 -49.525085 1.319618 36.034553 -15.101466 -14.780530 15.052398 1.769963 0.270029 6.244706 -94.396020 -74.917593 87.165907 -26.315963 56.771648 -38.943418 0.739644 -10.822435 5.394778 2.539735 -1.972319 0.481015 -126.218041 -73.253289 149.634812 -116.843306 86.427951 -134.195008 -5.549407 -23.184824 -1.878859 -0.553518 0.427268 -0.241064
24.912125 75.512655 0.465986 -29.095726 38.339399 -1.507152 -1.309299 2.689971 2.582470 0.183837 0.351641 0.380365 0.183837 0.351641 0.380365 0.137658 0.263845 0.285167 -3.585211 3.959681 3.804640 -9.636900 -28.344479 9.959595 14.768873 5.848242 -7.008724 63.874908 25.463897 -31.079378 2.622658 -10.452285 -11.032632 -1.876021 2.057202 -5.251386 -12.890053 9.674497 5.446093 -50.105666 1.294675 35.829668 -14.431812 -13.340726 13.913653 1.696356 -0.047496 6.175341 -82.651221 -73.552233 74.539142 -24.462321 55.288679 -37.163203 0.520483 -10.839995 5.387806 2.792668 -1.947954 0.606568 -115.499643 -75.003245 137.887753 -88.375664 87.290833 -105.936918 -5.395848 -23.512033 -2.069114 -0.679246 0.495986 -0.304340
24.388887 76.579629 1.191004 -28.255753 36.701482 -1.381868 -1.938240 3.071955 2.719161 0.177883 0.294850 0.282443 0.177883 0.294850 0.282443 0.133276 0.221220 0.211746 -3.522470 4.285073 3.843318 -9.472403 -27.746970 9.944368 14.498338 6.205484 -6.420052 64.926638 25.779531 -29.985086 2.282821 -10.168579 -10.877081 -1.756537 1.979986 -4.804467 -13.021216 10.313195 5.558025 -50.611683 1.392399 35.645614 -13.924806 -12.364218 12.858187 1.498748 -0.098517 5.963520 -73.250612 -71.623009 64.118631 -22.740229 53.681348 -35.454188 0.236497 -10.702202 5.380118 2.999906 -1.959862 0.722091 -102.763903 -76.172024 124.028397 -49.294301 87.150316 -66.969692 -5.285577 -23.790134 -2.238962 -0.851548 0.608998 -0.383239
23.881657 77.623735 1.897332 -27.608489 35.110682 -1.304854 -2.498764 3.374268 2.881639 0.114920 0.251288 0.246678 0.114920 0.251288 0.246678 0.086088 0.188512 0.184961 -3.385172 4.617746 3.781449 -9.099479 -27.158166 9.682518 14.391727 6.432860 -6.171341 66.140663 26.093225 -28.684566 2.037671 -10.028221 -10.621282 -1.651226 1.907991 -4.968458 -13.028761 10.955487 5.339392 -51.152457 1.502837 35.442477 -13.388483 -11.383571 11.956540 1.329421 -0.127925 5.651127 -65.673865 -69.574669 55.600915 -21.321165 52.099074 -33.801636 0.152277 -10.489909 5.348755 3.157229 -2.031299 0.805232 -88.622358 -76.464145 108.904429 -20.787511 86.163213 -38.654900 -5.299141 -23.933404 -2.530241 -0.895961 0.647117 -0.399594
23.308496 78.611920 2.635880 -27.078730 33.071787 -1.576138 -2.975086 4.076863 3.343087 0.057822 0.275991 0.234545 0.057822 0.275991 0.234545 0.043261 0.207015 0.175882 -3.254147 4.915014 3.682378 -8.728191 -26.637391 9.358352 14.205548 6.422222 -6.158461 67.760120 26.240182 -26.986816 1.695569 -9.644505 -10.487037 -1.418904 1.930878 -5.010768 -13.101002 11.305948 5.008472 -51.695064 1.757049 35.110938 -12.915649 -10.493905 11.258475 1.300552 -0.464243 5.414591 -59.026239 -66.737138 48.006881 -19.922736 50.535002 -32.139200 0.109070 -10.184059 5.321728 3.240923 -2.207578 0.837723 -73.912304 -75.565909 93.447188 -6.094285 84.888643 -23.907509 -5.917717 -23.823286 -2.986387 -0.567169 0.383242 -0.252349
22.762192 79.594867 3.375960 -26.523974 31.151043 -1.596966 -3.368275 4.673308 3.492484 0.041372 0.345147 0.184338 0.041372 0.345147 0.184338 0.030925 0.258873 0.138230 -3.211657 5.181865 3.649921 -8.581510 -26.153268 9.226578 13.823577 6.432332 -5.987051 69.187519 26.429344 -25.590104 1.289414 -9.179919 -10.506461 -1.120186 1.935138 -4.623653 -13.230694 11.372781 4.987212 -52.404090 2.086996 34.620374 -12.635057 -10.286240 10.715540 1.285142 -0.682251 5.258478 -54.163865 -63.783144 42.052970 -18.316780 48.980973 -30.378051 0.057875 -10.053063 5.248825 3.313313 -2.210702 0.877420 -61.217438 -74.119634 79.928796 2.101311 83.212015 -15.745451 -6.199442 -23.843652 -3.265393 -0.530094 0.324056 -0.238848
22.248668 80.551144 4.127990 -25.839733 29.195246 -1.434914 -3.807330 5.344679 3.473864 0.045563 0.431727 0.118183 0.045563 0.431727 0.118183 0.034089 0.323804 0.088604 -3.212958 5.432899 3.656850 -8.548810 -25.688354 9.202321 13.577110 6.563728 -5.577944 69.931204 26.982332 -24.736647 1.154248 -9.290887 -10.544014 -0.941771 1.883012 -4.420620 -13.434593 11.260889 5.111987 -53.339448 2.096718 33.925697 -12.524886 -10.244698 10.254945 1.271734 -0.629291 5.047083 -50.481257 -60.738553 36.991514 -16.352317 47.529522 -28.336792 -0.147357 -9.837059 5.159382 3.308632 -2.253069 0.892456 -50.682772 -72.060284 68.420398 6.413476 81.273319 -11.560468 -6.199648 -23.868785 -3.498176 -0.553692 0.367565 -0.242473
21.762936 81.480644 4.873639 -25.382480 27.341805 -1.266456 -4.161998 5.813904 3.391884 0.041632 0.479682 0.087224 0.041632 0.479682 0.087224 0.031156 0.359768 0.065385 -3.173354 5.763666 3.603728 -8.389632 -25.087834 9.023431 13.516584 6.901578 -5.186905 70.581278 27.366429 -24.203574 1.266715 -9.675123 -10.433108 -0.879979 1.941938 -4.341044 -13.707892 11.364139 4.977612 -54.093630 1.775267 33.162669 -12.621208 -9.756875 9.851842 1.264439 -0.708991 4.574548 -47.284042 -57.874898 32.471334 -14.266452 46.214022 -26.031453 -0.235361 -9.697503 4.992817 3.229990 -2.263687 0.880069 -42.372386 -69.640814 59.342476 9.098923 79.252684 -9.047716 -6.190379 -23.847325 -3.702652 -0.561173 0.405028 -0.240644
21.248133 82.361454 5.648591 -24.739808 25.303573 -1.147765 -4.660661 6.492210 3.441554 0.035489 0.540869 0.073279 0.035489 0.540869 0.073279 0.026552 0.405656 0.054927 -3.119934 6.107595 3.525652 -8.189758 -24.467013 8.787431 13.490490 6.825884 -4.886368 71.492476 27.842367 -23.101744 1.383584 -10.178167 -10.515343 -0.933136 1.882263 -4.419004 -14.005858 11.629284 4.751154 -54.720657 1.711324 32.412923 -12.595516 -9.472495 9.752459 1.285641 -0.622245 4.066385 -44.459775 -54.809648 28.217968 -12.378269 44.911093 -23.763363 -0.637897 -9.476528 4.785668 3.298283 -2.365591 0.921444 -36.013843 -66.725839 52.083478 10.715667 77.191341 -7.498896 -6.235997 -23.808129 -3.871865 -0.580848 0.457408 -0.251427
20.794156 83.237851 6.391236 -24.388968 23.716647 -0.969013 -4.850686 6.809831 3.304049 0.063032 0.586775 0.046085 0.063032 0.586775 0.046085 0.047230 0.440086 0.034503 -3.105425 6.471257 3.474731 -8.082082 -23.801837 8.626319 13.383416 6.642130 -4.593717 72.824018 27.964926 -21.545864 1.290390 -10.348434 -10.847285 -0.973812 1.827895 -4.348106 -14.325767 11.956537 4.681021 -55.762126 1.327173 31.570821 -12.475154 -8.929042 9.840734 1.382301 -0.601125 3.808428 -41.904028 -52.154371 24.518128 -10.879588 43.316992 -21.667764 -0.701959 -9.254108 4.631937 3.206576 -2.331869 0.900494 -30.898167 -64.132934 46.276711 12.579297 75.020946 -5.567106 -6.392702 -23.677978 -4.081055 -0.581211 0.506056 -0.248159
20.356099 84.087579 7.152904 -24.045016 22.105392 -0.763434 -5.061359 7.158552 3.167284 0.079070 0.638437 0.039787 0.079070 0.638437 0.039787 0.059260 0.478833 0.029757 -3.059179 6.877988 3.383928 -7.886762 -23.064520 8.365536 13.345967 6.875524 -4.489122 73.837253 27.612189 -20.805113 1.304849 -10.431308 -10.906749 -1.008998 1.951368 -4.030866 -14.563674 11.989448 4.725470 -56.854470 0.935176 30.518902 -12.480338 -9.091176 9.721833 1.437341 -0.584600 4.004733 -39.520137 -49.436213 20.994244 -9.671863 41.517937 -19.746594 -0.619988 -8.886687 4.482574 3.109967 -2.347022 0.885266 -26.560500 -61.408264 41.194317 13.963668 72.765442 -3.934520 -6.577181 -23.519076 -4.343530 -0.563901 0.563280 -0.236567
19.977323 84.923950 7.942656 -23.955373 20.557658 -0.516753 -5.066870 7.333548 2.881530 0.124720 0.704119 0.035459 0.124720 0.704119 0.035459 0.093498 0.528097 0.026451 -3.027439 7.357478 3.278151 -7.706783 -22.191992 8.076602 13.290394 7.262176 -4.464773 74.466963 27.028020 -20.547551 1.453179 -10.394109 -10.604616 -1.070247 2.090659 -3.712609 -14.552160 12.084098 5.036088 -57.984311 0.693519 29.427612 -12.658252 -10.060891 9.758495 1.419062 -0.466149 3.923598 -37.214280 -46.767182 17.668770 -8.433929 39.641487 -17.816446 -0.539767 -8.488173 4.383844 2.886157 -2.327111 0.827554 -22.537326 -58.604098 36.607353 14.651505 70.390094 -3.015393 -6.643410 -23.342004 -4.530327 -0.546521 0.635855 -0.234069
